<svg width="412" height="200" viewBox="0 0 412 200" fill="none" xmlns="http://www.w3.org/2000/svg">
<path d="M295.1 44.4C278.4 44.7 261.6 49.1 247 55.7C236.3 60.6 225.9 66.1 214.5 69.3C187.3 77 158.5 70.6 130.4 67.5C102.3 64.4 80.1999 59.4 55.7999 75.8C41.5999 85.3 15.6999 134.2 98.8999 164.9C161.3 187.9 237.5 181.3 254.6 178.4C307.3 169.3 348 155.1 361.4 129.5C371.5 110.1 367.8 81.6 352.1 65.7C336.5 49.9 315.9 44 295.1 44.4Z" fill="#EFF4FE"/>
<path d="M342.8 75.6L344.1 74.9C345.7 74 345.7 71.7 344.1 70.9L342.8 70.2C342.4 70 342 69.7 341.8 69.2L341.1 67.9C340.2 66.3 337.9 66.3 337.1 67.9L336.4 69.2C336.2 69.6 335.9 70 335.4 70.2L334.1 70.9C332.5 71.8 332.5 74.1 334.1 74.9L335.4 75.6C335.8 75.8 336.2 76.1 336.4 76.6L337.1 77.9C338 79.5 340.3 79.5 341.1 77.9L341.8 76.6C342.2 76.2 342.5 75.8 342.8 75.6Z" fill="#4184F3"/>
<path d="M71.2999 150.9L72.5999 150.2C74.1999 149.3 74.1999 147 72.5999 146.2L71.2999 145.5C70.8999 145.3 70.4999 145 70.2999 144.5L69.5999 143.2C68.6999 141.6 66.3999 141.6 65.5999 143.2L64.8999 144.5C64.6999 144.9 64.3999 145.3 63.8999 145.5L62.5999 146.2C60.9999 147.1 60.9999 149.4 62.5999 150.2L63.8999 150.9C64.2999 151.1 64.6999 151.4 64.8999 151.9L65.5999 153.2C66.4999 154.8 68.7999 154.8 69.5999 153.2L70.2999 151.9C70.6999 151.4 70.9999 151.1 71.2999 150.9Z" fill="#34A853"/>
<path d="M265.1 27.6L266.4 26.9C268 26 268 23.7 266.4 22.9L265.1 22.2C264.7 22 264.3 21.7 264.1 21.2L263.4 19.9C262.5 18.3 260.2 18.3 259.4 19.9L258.7 21.2C258.5 21.6 258.2 22 257.7 22.2L256.4 22.9C254.8 23.8 254.8 26.1 256.4 26.9L257.7 27.6C258.1 27.8 258.5 28.1 258.7 28.6L259.4 29.9C260.3 31.5 262.6 31.5 263.4 29.9L264.1 28.6C264.4 28.2 264.7 27.8 265.1 27.6Z" fill="#FBBC04"/>
<path d="M331.272 128.739L327.525 132.488L334.811 139.769L338.557 136.021L331.272 128.739Z" fill="#EA4335"/>
<path d="M62.2479 102.151L53.9053 110.496L58.1485 114.738L66.4911 106.393L62.2479 102.151Z" fill="#FFCC3F"/>
<path d="M221.91 131.299L213.284 139.927L217.669 144.31L226.294 135.683L221.91 131.299Z" fill="#34A853"/>
<path d="M371.2 102.9C370.3 101.6 368.9 100.7 367.4 100.4C365.9 100.1 364.2 100.5 362.9 101.4C361.6 102.3 360.7 103.7 360.4 105.2C360.1 106.7 360.5 108.4 361.4 109.7C361.5 109.8 361.6 109.9 361.7 110C361.9 110.2 362.2 110.3 362.5 110.3C362.9 110.4 363.4 110.3 363.7 110.1C364.5 109.6 364.7 108.6 364.1 107.8C363.2 106.6 363.6 104.9 364.8 104.1C366 103.2 367.7 103.6 368.5 104.8C368.7 105.1 369.2 105.5 369.6 105.5C370 105.6 370.5 105.5 370.8 105.3C371.5 104.7 371.6 103.7 371.2 102.9Z" fill="#FFCC3F"/>
<path d="M286.7 63.4C285.4 64.3 284.5 65.7 284.2 67.2C283.9 68.7 284.3 70.4 285.2 71.7C286.1 73 287.5 73.9 289 74.2C290.5 74.5 292.2 74.1 293.5 73.2C293.6 73.1 293.7 73 293.8 72.9C294 72.7 294.1 72.4 294.1 72.1C294.2 71.7 294.1 71.2 293.9 70.9C293.4 70.1 292.4 69.9 291.6 70.5C290.4 71.4 288.7 71 287.9 69.8C287 68.6 287.4 66.9 288.6 66.1C288.9 65.9 289.3 65.4 289.3 65C289.4 64.6 289.3 64.1 289.1 63.8C288.5 63.1 287.5 63 286.7 63.4Z" fill="#34A853"/>
<path d="M216 178.3C217.8 178.7 219.8 178.2 221.3 177.2C222.8 176.2 223.9 174.5 224.2 172.6C224.6 170.8 224.1 168.8 223.1 167.3C222.1 165.7 220.4 164.7 218.5 164.4C218.3 164.4 218.1 164.4 218 164.4C217.6 164.4 217.3 164.6 217.1 164.8C216.6 165.1 216.4 165.5 216.3 166C216.1 167.1 216.8 168.1 217.9 168.3C219.6 168.6 220.7 170.2 220.5 172C220.2 173.7 218.6 174.8 216.8 174.6C216.3 174.5 215.7 174.6 215.3 175C214.8 175.3 214.6 175.7 214.5 176.2C214.2 177.1 215 178 216 178.3Z" fill="#EA4335"/>
<path d="M70.5002 74.6C72.0002 73.6 73.0002 72 73.4002 70.2C73.8002 68.4 73.3002 66.6 72.3002 65.1C71.3002 63.6 69.7002 62.6 67.9002 62.2C66.2002 61.8 64.3002 62.3 62.8002 63.3C62.7002 63.4 62.6002 63.6 62.4002 63.7C62.1002 64 62.0002 64.4 62.0002 64.6C61.9002 65.1 62.0002 65.6 62.2002 66C62.8002 66.9 63.9002 67.1 64.8002 66.5C66.2002 65.5 68.0002 65.9 69.0002 67.3C70.0002 68.7 69.6002 70.6 68.3002 71.6C67.9002 71.9 67.6002 72.4 67.6002 72.9C67.5002 73.4 67.6002 73.9 67.8002 74.3C68.5002 75 69.6002 75.1 70.5002 74.6Z" fill="#4184F3"/>
<path d="M180.9 159.7C183.606 159.7 185.8 157.506 185.8 154.8C185.8 152.094 183.606 149.9 180.9 149.9C178.194 149.9 176 152.094 176 154.8C176 157.506 178.194 159.7 180.9 159.7Z" fill="#FBBC04"/>
<path d="M313.4 91.2C312.4 90.8 311.3 91.4 310.9 92.4C310.8 92.5 310.8 92.7 310.8 92.8L310.5 99.3L314.4 94.1C314.5 94 314.6 93.8 314.6 93.7C314.9 92.7 314.4 91.6 313.4 91.2Z" fill="#4285F4"/>
<path d="M302.4 91.7C301.4 92.2 301 93.3 301.5 94.3C301.6 94.4 301.6 94.6 301.7 94.7L306.1 99.5L305.2 93.1C305.2 93 305.1 92.8 305.1 92.7C304.5 91.7 303.3 91.2 302.4 91.7Z" fill="#4285F4"/>
<path d="M294.9 99.8C294.5 100.8 295.1 101.9 296.1 102.3C296.2 102.4 296.4 102.4 296.5 102.4L303 102.7L297.8 98.8C297.7 98.7 297.5 98.6 297.4 98.6C296.4 98.3 295.3 98.8 294.9 99.8Z" fill="#4285F4"/>
<path d="M295.4 110.8C295.9 111.8 297 112.2 298 111.7C298.1 111.6 298.3 111.6 298.4 111.5L303.2 107.1L296.8 108C296.7 108 296.5 108.1 296.4 108.1C295.4 108.7 294.9 109.9 295.4 110.8Z" fill="#4285F4"/>
<path d="M303.5 118.3C304.5 118.7 305.6 118.1 306 117.1C306.1 117 306.1 116.8 306.1 116.7L306.4 110.2L302.5 115.4C302.4 115.5 302.3 115.7 302.3 115.8C302 116.8 302.5 117.9 303.5 118.3Z" fill="#4285F4"/>
<path d="M314.5 117.8C315.5 117.3 315.9 116.2 315.4 115.2C315.3 115.1 315.3 114.9 315.2 114.8L310.8 110L311.7 116.4C311.7 116.5 311.8 116.7 311.8 116.8C312.4 117.8 313.6 118.3 314.5 117.8Z" fill="#4285F4"/>
<path d="M322 109.7C322.4 108.7 321.8 107.6 320.8 107.2C320.7 107.1 320.5 107.1 320.4 107.1L313.9 106.8L319.1 110.7C319.2 110.8 319.4 110.9 319.5 110.9C320.5 111.2 321.6 110.7 322 109.7Z" fill="#4285F4"/>
<path d="M321.5 98.7C321 97.7 319.9 97.3 318.9 97.8C318.8 97.9 318.6 97.9 318.5 98L313.7 102.4L320.1 101.5C320.2 101.5 320.4 101.4 320.5 101.4C321.5 100.8 322 99.6 321.5 98.7Z" fill="#4285F4"/>
<path d="M308.5 107.4C309.936 107.4 311.1 106.236 311.1 104.8C311.1 103.364 309.936 102.2 308.5 102.2C307.064 102.2 305.9 103.364 305.9 104.8C305.9 106.236 307.064 107.4 308.5 107.4Z" fill="#8AB4F8"/>
<path d="M113 108.7L115.8 124.6C115.9 125.2 115.5 125.8 114.9 125.9L94.6 129.5C94 129.6 93.4 129.2 93.3 128.6L90.5 112.7L113 108.7Z" fill="#EE675C"/>
<path d="M103.016 128.007L106.562 127.382L103.558 110.345L100.013 110.97L103.016 128.007Z" fill="#4184F3"/>
<path d="M113.108 108.718L90.5562 112.694L90.7818 113.974L113.334 109.998L113.108 108.718Z" fill="#BDC1C6"/>
<path d="M96.7 103.4V103.6L96.9 105.2V105.4L91.6 107.4C91 107.6 90.4 107.2 90.3 106.7L90.2 106.3L90 104.7L89.9 104.3C89.8 103.7 90.3 103.2 90.9 103.2L96.7 103.4Z" fill="#4184F3"/>
<path d="M90.3999 106.6C92.2999 105.5 96.7999 105 96.7999 105L96.9999 105.4L91.6999 107.4C91.0999 107.5 90.4999 107.2 90.3999 106.6Z" fill="#234BD2"/>
<path d="M98.5 102.3L98.6 102.4L99.8 103.4L99.9 103.5L104.3 99.9C104.8 99.5 104.8 98.8 104.3 98.4L104 98.1L102.8 97.1L102.5 96.8C102 96.4 101.3 96.6 101.1 97.1L98.5 102.3Z" fill="#4184F3"/>
<path d="M104.5 98.5C102.5 99.6 99.7998 103.2 99.7998 103.2L100.1 103.6L104.5 100C104.9 99.6 104.9 98.9 104.5 98.5Z" fill="#234BD2"/>
<path d="M102.3 97.8L99.0999 102.6L98.8999 102.2L102.3 97.8Z" fill="#234BD2"/>
<path d="M96.2001 103.8L96.4001 104.2L90.6001 104.5L96.2001 103.8Z" fill="#234BD2"/>
<path d="M111.9 101.3L89.1998 114.4C88.6998 114.7 88.0998 114.5 87.7998 114L86.4998 111.7C86.1998 111.2 86.3998 110.6 86.8998 110.3L109.6 97.2C110.1 96.9 110.7 97.1 111 97.6L112.3 99.9C112.5 100.4 112.4 101 111.9 101.3Z" fill="#EE675C"/>
<path d="M98.8996 108.8L95.6996 103.2C95.5996 103 95.6996 102.8 95.7996 102.7L98.2996 101.3C98.4996 101.2 98.6996 101.3 98.7996 101.4L102 107L98.8996 108.8Z" fill="#4184F3"/>
<path d="M262.9 110.8L254.2 86.9C253.7 85.4 252.1 84.6 250.5 85C249.1 85.3 248.2 86.6 248.2 88L249.7 97L240.5 83L219.4 95.2C223.5 104.2 233.7 109.3 244.8 120.9L275.8 167.5C282 166.1 305.9 158.8 305.5 158.4L262.9 110.8Z" fill="#CBA072"/>
<path d="M239.8 93.8C236.4 89.1 234.2 83.5 233.5 77.8" stroke="#845D44" stroke-width="3.1697" stroke-miterlimit="10" stroke-linecap="round" stroke-linejoin="round"/>
<path d="M233.5 97.6C230.1 92.9 227.9 87.3 227.2 81.6" stroke="#845D44" stroke-width="3.1697" stroke-miterlimit="10" stroke-linecap="round" stroke-linejoin="round"/>
<path d="M243.8 105.2H213.4C210.1 105.2 207.5 102.5 207.5 99.3V37C207.5 33.7 210.2 31.1 213.4 31.1H243.8C247.1 31.1 249.7 33.8 249.7 37V99.3C249.8 102.6 247.1 105.2 243.8 105.2Z" fill="#9AA0A6"/>
<path d="M244.5 41.3H212.6V95.6H244.5V41.3Z" fill="white"/>
<path d="M254.3 86.9L249.2 79.7C248.2 78.5 246.4 78.2 245.1 79.1C243.9 79.9 243.4 81.4 243.9 82.7L249.9 97L254.3 86.9Z" fill="#CBA072"/>
<path d="M139.2 169.3L159.3 137.9C165.2 137.9 181.2 114.5 186.1 106.1C188.3 102.4 179 94.9 175.1 93.1L174.7 92.9C170.7 91 166 92.3 163.5 96L154.6 109.3L156.1 100.7C156.1 99.3 155.2 98.2 153.9 97.8C152.4 97.4 150.9 98.2 150.4 99.7L141.5 124.2L110.6 161L139.2 169.3Z" fill="#F5C189"/>
<path d="M160.3 117.3H189.5C192.6 117.3 195.2 114.8 195.2 111.6V51.9C195.2 48.8 192.7 46.2 189.5 46.2H160.3C157.2 46.2 154.6 48.7 154.6 51.9V111.6C154.6 114.7 157.1 117.3 160.3 117.3Z" fill="#9AA0A6"/>
<path d="M159.484 108.036L190.083 108.036L190.083 56.0356L159.484 56.0356L159.484 108.036Z" fill="white"/>
<path d="M141.3 124.2L146.4 98.6L153.5 86.6C154.7 85 157 84.6 158.8 85.6C160.3 86.6 161 88.5 160.5 90.2L154 105.6L154.1 105.8C157.3 109.7 158.9 114.6 158.6 119.6L158.3 124.9L141.3 124.2Z" fill="#F5C189"/>
<path d="M101.9 165.5C114.7 170.1 128.1 173.5 141.4 175.9L159.3 143.2L136.1 127.3L101.9 165.5Z" fill="#4184F3"/>
<path d="M133.2 141.7L141.3 130.9" stroke="#185ABC" stroke-width="1.5189" stroke-miterlimit="10" stroke-linecap="round" stroke-linejoin="round"/>
<path d="M139.2 146L147.3 135.2" stroke="#185ABC" stroke-width="1.5189" stroke-miterlimit="10" stroke-linecap="round" stroke-linejoin="round"/>
<path d="M145.2 150.1L153.4 139.3" stroke="#185ABC" stroke-width="1.5189" stroke-miterlimit="10" stroke-linecap="round" stroke-linejoin="round"/>
<path d="M174.8 90.7C180.323 90.7 184.8 86.2229 184.8 80.7C184.8 75.1772 180.323 70.7 174.8 70.7C169.277 70.7 164.8 75.1772 164.8 80.7C164.8 86.2229 169.277 90.7 174.8 90.7Z" fill="#1A73E8"/>
<path d="M173.5 85.2L169.8 81.4L171.4 79.9L173.5 82.1L178.7 76.9L180.2 78.5L173.5 85.2Z" fill="white"/>
<path d="M238.8 65.6C238.8 66.6 238 67.3 237.1 67.3H235.3C236 65.9 236.3 64.3 236.4 63H237C238 63 238.7 63.8 238.7 64.7L238.8 65.6ZM220.3 67.3C219.3 67.3 218.6 66.5 218.6 65.6V64.7C218.6 63.7 219.4 63 220.3 63H220.9C221.1 64.3 221.4 65.9 222.1 67.3H220.3ZM237.1 60.9H236.6C236.6 59.9 236.6 59.3 236.6 59.3H220.9C220.9 59.3 220.8 59.9 220.9 60.9H220.4C218.3 60.9 216.6 62.6 216.6 64.7V65.6C216.6 67.7 218.3 69.4 220.4 69.4H223.4C224.4 70.6 225.7 71.5 227.5 71.9V75H225.3C224.7 75 224.1 75.5 224.1 76.2C224.1 76.8 224.6 77.4 225.3 77.4H232C232.6 77.4 233.2 76.9 233.2 76.2C233.2 75.6 232.7 75 232 75H229.9V71.9C231.7 71.5 233.1 70.6 234 69.4H237C239.1 69.4 240.8 67.7 240.8 65.6V64.7C240.9 62.6 239.2 60.9 237.1 60.9Z" fill="#FBBC04"/>
<path d="M236.6 59.3H220.9C220.1 59.3 219.4 58.7 219.4 57.8V57.6C219.4 56.8 220 56.1 220.8 56.1H236.5C237.3 56.1 238 56.7 238 57.6V57.8C238 58.7 237.4 59.3 236.6 59.3Z" fill="#FCC934"/>
<path d="M237.1 60.9H236.6C236.6 59.9 236.6 59.3 236.6 59.3H220.9C220.9 59.3 220.9 59.8 220.9 60.5H233.9C234 62.9 233.7 68.4 230 71.8C231.8 71.4 233.1 70.5 234.1 69.3H237.1C239.2 69.3 240.9 67.6 240.9 65.5V64.6C240.9 62.6 239.2 60.9 237.1 60.9ZM237.1 67.3H235.3C236 65.9 236.3 64.3 236.4 63H237C238 63 238.7 63.8 238.7 64.7V65.6C238.8 66.5 238.1 67.3 237.1 67.3Z" fill="#F9AB00"/>
<path d="M313.6 163.8L268.2 116.4L248.6 131.4L275.1 174.4C289.2 171.4 302.1 167.9 313.6 163.8Z" fill="#FBBC04"/>
</svg>
